# xmcd CD database file
#
# Track frame offsets:
#	150
#	20366
#	36932
#	51823
#	71313
#	89325
#	101588
#	122972
#	140416
#	164963
#	176259
#	197547
#	218828
#	232684
#	246987
#
# Disc length: 3598 seconds
#
# Revision: 0
# Processed by: cddbd v1.5.1PL0 Copyright (c) Steve Scherf et al.
# Submitted via: CDex 1.51
#
DISCID=cd0e0c0f
DTITLE=Nico Carstens - Boereqanga
DYEAR=1996
DGENRE=Jazz
TTITLE0=Viva Madiba
TTITLE1=Skokiaan
TTITLE2=Pata Pata
TTITLE3=Herdboy
TTITLE4=Meadowlands
TTITLE5=Valley of 1000 Hills
TTITLE6=Amarula
TTITLE7=Afrikwela
TTITLE8=Ntyilo Ntyilo
TTITLE9=Somma Ghoema
TTITLE10=Zambezi
TTITLE11=Warm Patat
TTITLE12=Saldanha
TTITLE13=Babanango
TTITLE14=Katsamba
EXTD=YEAR: 1996
EXTT0=
EXTT1=
EXTT2=
EXTT3=
EXTT4=
EXTT5=
EXTT6=
EXTT7=
EXTT8=
EXTT9=
EXTT10=
EXTT11=
EXTT12=
EXTT13=
EXTT14=
PLAYORDER=
